<?xml version="1.0" standalone="no"?>
<!DOCTYPE svg PUBLIC "-//W3C//DTD SVG 20010904//EN"
 "http://www.w3.org/TR/2001/REC-SVG-20010904/DTD/svg10.dtd">
<svg version="1.0" xmlns="http://www.w3.org/2000/svg"
 width="800.000000pt" height="800.000000pt" viewBox="0 0 800.000000 800.000000"
 preserveAspectRatio="xMidYMid meet">
<metadata>
Created by potrace 1.14, written by Peter Selinger 2001-2017
</metadata>
<g transform="translate(0.000000,800.000000) scale(0.100000,-0.100000)"
fill="#000000" stroke="none">
<path d="M3860 6899 c-570 -541 -1962 -1392 -2762 -1690 -65 -24 -118 -47
-118 -51 0 -4 285 -206 633 -449 347 -243 668 -467 712 -499 44 -31 109 -77
145 -102 36 -25 171 -119 300 -210 129 -90 372 -260 540 -378 168 -117 341
-238 385 -270 44 -31 109 -77 145 -102 36 -25 171 -119 300 -210 279 -195 328
-229 533 -372 86 -61 155 -111 154 -111 -1 -1 -36 -25 -79 -53 l-76 -51 -309
211 c-169 116 -384 263 -478 328 -741 509 -767 526 -964 594 -194 68 -278 80
-531 80 -173 1 -247 -4 -320 -17 -338 -63 -638 -176 -946 -359 -56 -34 -114
-70 -128 -82 l-26 -21 277 -191 c153 -105 476 -328 718 -495 242 -168 490
-339 550 -381 136 -93 222 -152 810 -559 259 -179 505 -349 547 -378 l78 -52
67 64 c571 547 1982 1409 2802 1713 l103 38 -28 23 c-26 20 -315 224 -565 398
-47 33 -352 247 -678 475 -325 228 -631 442 -679 476 -48 33 -260 182 -472
331 -212 148 -443 310 -515 360 -102 70 -545 381 -661 463 -12 8 -50 35 -85
59 -35 25 -88 62 -117 84 l-53 39 71 49 c39 27 76 49 82 49 10 0 94 -57 498
-334 102 -70 264 -181 360 -247 96 -66 238 -163 315 -216 260 -178 298 -203
394 -252 504 -258 1142 -216 1801 119 137 70 330 186 330 198 0 4 -196 142
-436 307 -239 165 -467 323 -507 351 -40 28 -211 147 -382 264 -324 223 -346
238 -565 390 -74 51 -171 118 -215 148 -44 31 -107 74 -140 97 -590 409 -717
495 -728 495 -6 -1 -46 -33 -87 -71z"/>
</g>
</svg>
